Coordinates
version=1
nRows=12
nColumns=24
inDegrees=yes

Units are S.I. units (second, meters, Newtons, ...)
Angles are in degrees.

endheader
time	pelvis_tilt	pelvis_list	pelvis_rotation	pelvis_tx	pelvis_ty	pelvis_tz	hip_flexion_r	hip_adduction_r	hip_rotation_r	knee_angle_r	ankle_angle_r	subtalar_angle_r	mtp_angle_r	hip_flexion_l	hip_adduction_l	hip_rotation_l	knee_angle_l	ankle_angle_l	subtalar_angle_l	mtp_angle_l	lumbar_extension	lumbar_bending	lumbar_rotation
      2.84500000	     -6.51416343	     -1.76267375	     -5.02585705	     -1.04899067	     -0.03823140	     -0.13013181	     -6.26550611	      6.97208592	      8.20976778	    -27.99476913	      2.70076375	     17.28218186	     22.91862453	     36.58080898	     -1.31642441	    -11.92015753	    -15.59448952	     27.49298438	     24.99023160	    -78.36046860	      6.72336174	      1.39974651	      6.99577496
      2.85000000	     -6.54469376	     -1.44719479	     -5.13011949	     -1.04119700	     -0.03891808	     -0.13055934	     -6.12334745	      6.37600381	      7.69225388	    -28.95159394	      1.77116003	     18.50967682	     23.82771848	     36.57812678	     -1.02349416	    -12.00862164	    -16.39021418	     26.84348831	     24.42175038	    -78.41281175	      6.94976340	      1.03042509	      7.00038004
      2.85500000	     -6.58475433	     -1.07933082	     -5.18691155	     -1.03333372	     -0.03950570	     -0.13111364	     -5.94141337	      5.69272275	      7.09222265	    -29.87290877	      0.57284472	     19.69513471	     25.17223852	     36.56831185	     -0.63055862	    -12.02340398	    -17.11192990	     26.03646865	     23.77419207	    -78.40951172	      7.20120875	      0.60810992	      6.97730712
      2.86000000	     -6.63519677	     -0.64738351	     -5.16117731	     -1.02534329	     -0.03996214	     -0.13170421	     -5.75381111	      4.93556965	      6.43799566	    -30.67299497	     -1.03041864	     20.62484812	     27.25180891	     36.54062072	     -0.11284148	    -11.89585928	    -17.73644986	     25.01927590	     23.06112316	    -78.20045856	      7.49486425	      0.08466220	      6.83309936
      2.86500000	     -6.71331247	     -0.20711855	     -5.21182072	     -1.01761039	     -0.04043488	     -0.13227276	     -5.38598821	      4.13095338	      5.78954588	    -31.73635142	     -2.46382758	     22.01506389	     28.65253942	     36.58980710	      0.35337939	    -11.85204026	    -18.41519168	     24.01656560	     22.47185646	    -78.02393927	      7.76124238	     -0.41507772	      6.81149288
      2.87000000	     -6.78760153	      0.29524313	     -5.12458220	     -1.00960012	     -0.04078439	     -0.13298164	     -5.07153465	      3.25449220	      5.03137077	    -32.59219942	     -4.47059619	     22.91249275	     30.98433787	     36.60630831	      1.00854952	    -11.52990092	    -19.02769690	     22.85899810	     21.67546875	    -77.42531161	      8.08482034	     -1.01844342	      6.58400140
      2.87500000	     -6.89448882	      0.80175241	     -5.07675034	     -1.00174911	     -0.04115286	     -0.13367570	     -4.61305722	      2.34878094	      4.30343196	    -33.60911436	     -6.49464526	     24.01972868	     32.98540042	     36.69924167	      1.63694175	    -11.23249138	    -19.71245757	     21.71934472	     20.98301958	    -76.63889768	      8.41137763	     -1.60554243	      6.43915252
      2.88000000	     -7.01249503	      1.32005667	     -5.00697593	     -0.99390321	     -0.04149978	     -0.13440775	     -4.09105105	      1.41805815	      3.58043738	    -34.67584071	     -8.70313934	     25.07836829	     34.84141737	     36.81734131	      2.30416102	    -10.86934871	    -20.43074060	     20.62120799	     20.28227724	    -75.72993998	      8.74475099	     -2.20627546	      6.27087622
      2.88500000	     -7.14292032	      1.83879936	     -4.92103237	     -0.98607653	     -0.04185462	     -0.13514295	     -3.50575185	      0.48508844	      2.89878557	    -35.79237692	    -11.08718865	     26.04988628	     36.56327131	     36.96261685	      2.98455992	    -10.47794135	    -21.19418188	     19.61488103	     19.64247712	    -74.70032395	      9.08863326	     -2.80991930	      6.09899916
      2.89000000	     -7.32071559	      2.40969687	     -4.90958498	     -0.97826074	     -0.04225341	     -0.13582667	     -2.77244018	     -0.49883079	      2.42175654	    -37.11769199	    -13.29546227	     27.26780846	     37.21333690	     37.15283907	      3.66597040	    -10.21849976	    -21.96971013	     18.88948235	     19.02600226	    -74.37446585	      9.49279439	     -3.43863069	      6.03620578
      2.89500000	     -7.40857165	      2.91619535	     -4.79694921	     -0.97047268	     -0.04253975	     -0.13654662	     -2.15990992	     -1.40617278	      1.82363601	    -38.22059345	    -16.25813442	     27.60877249	     39.18970672	     37.23366009	      4.35461000	     -9.85337408	    -22.75118612	     18.06636655	     18.58495527	    -72.86898957	      9.77552992	     -4.03769315	      5.87627434
      2.90000000	     -7.57655810	      3.43866523	     -4.65400539	     -0.96279167	     -0.04300355	     -0.13740398	     -1.35432161	     -2.32538836	      1.31078485	    -39.67216240	    -18.66585843	     28.40935202	     39.10943162	     37.40791196	      5.08865125	     -9.46904023	    -23.53919985	     17.60651110	     18.03924451	    -72.57300890	     10.12616814	     -4.63391268	      5.69583579
